<svg width="70" height="70" viewBox="0 0 70 70" fill="none" xmlns="http://www.w3.org/2000/svg">
<circle cx="35" cy="35" r="35" fill="#FFA5C0"/>
<path d="M31.3254 24.3292C33.4735 24.3292 35.2211 22.7008 35.2211 20.6992C35.2211 18.6975 33.4735 17.069 31.3254 17.069C29.1774 17.069 27.4299 18.6975 27.4299 20.6992C27.4299 22.7008 29.1774 24.3292 31.3254 24.3292ZM31.3254 18.4167C32.6761 18.4167 33.7748 19.4406 33.7748 20.6992C33.7748 21.9577 32.6761 22.9816 31.3254 22.9816C29.9748 22.9816 28.8761 21.9577 28.8761 20.6992C28.8761 19.4406 29.9748 18.4167 31.3254 18.4167Z" fill="white"/>
<path d="M29.8923 51.2619C32.3505 51.2619 34.3505 49.3983 34.3505 47.1076C34.3505 44.8169 32.3505 42.9533 29.8923 42.9533C27.4341 42.9533 25.4342 44.8169 25.4342 47.1076C25.4342 49.3983 27.4341 51.2619 29.8923 51.2619ZM29.8923 44.301C31.5532 44.301 32.9042 45.56 32.9042 47.1076C32.9042 48.6552 31.5531 49.9142 29.8923 49.9142C28.2316 49.9142 26.8804 48.6552 26.8804 47.1076C26.8804 45.56 28.2315 44.301 29.8923 44.301Z" fill="white"/>
<path d="M23.5076 23.8262C20.9014 23.8262 18.7811 25.802 18.7811 28.2306C18.7811 30.6591 20.9014 32.6349 23.5076 32.6349C26.1138 32.6349 28.234 30.6591 28.234 28.2306C28.234 25.802 26.1138 23.8262 23.5076 23.8262ZM23.5076 31.2873C21.6988 31.2873 20.2274 29.9161 20.2274 28.2307C20.2274 26.5452 21.6989 25.174 23.5076 25.174C25.3162 25.174 26.7878 26.5452 26.7878 28.2307C26.7878 29.9161 25.3163 31.2873 23.5076 31.2873Z" fill="white"/>
<path d="M22.1539 43.3305C24.7601 43.3305 26.8804 41.3548 26.8804 38.9262C26.8804 36.4976 24.7601 34.5219 22.1539 34.5219C19.5477 34.5219 17.4275 36.4976 17.4275 38.9262C17.4275 41.3548 19.5477 43.3305 22.1539 43.3305ZM22.1539 35.8694C23.9627 35.8694 25.4342 37.2406 25.4342 38.9261C25.4342 40.6116 23.9626 41.9828 22.1539 41.9828C20.3453 41.9828 18.8737 40.6116 18.8737 38.9261C18.8737 37.2406 20.3452 35.8694 22.1539 35.8694Z" fill="white"/>
<path d="M26.8649 56.0639C27.2572 56.1312 27.6343 55.8881 27.7061 55.522C27.7779 55.1559 27.5175 54.805 27.1246 54.7381C24.353 54.2665 21.8736 52.9853 19.9545 51.0328C14.3645 45.3458 11.8757 39.2121 12.557 32.8017C14.0945 18.3349 30.4661 11.1342 45.5643 13.9481C47.6041 14.3283 48.3985 15.8775 48.4588 17.0886C48.5185 18.2841 47.8903 19.8742 45.9237 20.4217C43.3827 21.129 41.3736 22.1614 39.9522 23.4901C36.6946 26.5355 36.4124 31.6739 39.523 35.1352C41.059 36.8442 42.0415 38.9167 42.3715 41.1391C40.734 44.6073 39.0595 48.5349 37.7636 52.1702C35.6815 53.7729 33.0472 54.744 30.3221 54.9098C29.9235 54.9341 29.6216 55.2547 29.6476 55.6261C29.6727 55.9826 29.9906 56.2561 30.3686 56.2561C30.3844 56.2561 30.4003 56.2557 30.4164 56.2546C32.7628 56.1118 35.0495 55.4304 37.0376 54.3011C36.617 55.6663 37.3036 57.0965 38.6844 57.7148C40.159 58.3752 41.9441 57.8519 42.7487 56.5252C44.1412 54.2294 45.6499 51.443 47.1117 48.4673C47.278 48.1289 47.1182 47.729 46.7552 47.5741C46.3919 47.4191 45.963 47.5681 45.7968 47.9064C44.3518 50.8481 42.8624 53.5991 41.4898 55.8622C41.0581 56.5738 40.1012 56.8539 39.3108 56.5002C38.5629 56.1653 38.1943 55.3869 38.4344 54.6494C40.3011 48.9114 43.4142 41.927 46.266 36.5264L50.1527 38.0767C49.2465 40.378 48.2142 42.7741 47.1609 45.0459C47.0026 45.3876 47.1717 45.7841 47.5383 45.9315C47.9056 46.0791 48.3306 45.9215 48.4888 45.5798C50.4728 41.2894 52.6871 35.9305 53.9794 31.4222C54.4387 31.2685 54.7706 30.9589 54.9466 30.5758L55.5724 29.2134C55.7065 28.9215 55.7361 28.6122 55.6776 28.3213C56.8812 27.6053 58.566 26.3282 59.439 24.4276C60.5176 22.08 59.8009 18.1028 59.2776 15.941C59.1774 15.5268 58.8674 15.1796 58.4485 15.0125C58.0294 14.8454 57.546 14.8759 57.1552 15.0943C55.1154 16.2339 51.5324 18.4962 50.454 20.8436C49.5812 22.7433 49.7522 24.7602 50.0269 26.066C49.7532 26.2314 49.5382 26.4683 49.407 26.754L48.7812 28.1164C48.6038 28.5025 48.5952 28.9386 48.7916 29.3528C46.8513 32.3157 44.9249 35.9118 43.371 39.0669C42.8252 37.3112 41.8987 35.6797 40.6319 34.2701C39.4189 32.9203 38.8039 31.3384 38.8039 29.568C38.8039 25.7475 41.3386 23.1048 46.3377 21.7131C48.6143 21.0794 50.0139 19.2396 49.9035 17.0263C49.8122 15.1956 48.5228 13.1254 45.848 12.6268C29.9317 9.66038 12.7443 17.3682 11.1177 32.669C10.3941 39.4767 13.0084 45.9615 18.8881 51.9431C21.022 54.1141 23.7803 55.5391 26.8649 56.0639V56.0639ZM49.9008 30.2466C50.8484 30.6246 51.5719 30.9132 52.5196 31.2912C52.0468 32.9114 51.4065 34.7941 50.6435 36.8065L46.9133 35.3185C47.9495 33.4147 48.9693 31.6833 49.9008 30.2466V30.2466ZM54.2429 28.683L53.617 30.0454C53.5664 30.1553 53.4342 30.1902 53.335 30.1506L50.2235 28.9094C50.1226 28.8691 50.0606 28.7554 50.1105 28.6467L50.7364 27.2842C50.7852 27.1783 50.9142 27.1373 51.0186 27.1791L54.13 28.4202C54.2302 28.4603 54.2919 28.5761 54.2429 28.683ZM51.7833 21.3739C52.1 20.6846 53.3272 18.8085 57.8732 16.2642C59.036 21.0858 58.426 23.2078 58.1094 23.8972C57.3627 25.5226 55.8608 26.6262 54.8174 27.2339C54.7787 27.2149 54.7391 27.1973 54.6989 27.1813L51.5874 25.9401H51.5873C51.5471 25.9242 51.5062 25.9096 51.4648 25.8967C51.2166 24.7735 51.0368 22.9991 51.7833 21.3739V21.3739Z" fill="white"/>
</svg>
