<svg width="70" height="70" viewBox="0 0 70 70" fill="none" xmlns="http://www.w3.org/2000/svg">
<circle cx="35" cy="35" r="35" fill="#FFA5C0"/>
<path d="M52.934 12.5381L51.877 12.4301C51.8328 12.4256 50.9878 12.3413 49.7158 12.3309C50.1404 9.96231 50.1582 8.00463 50.1588 7.90914L50.1657 6.75636L49.1749 6.94643C49.0679 6.96699 46.7451 7.42104 44.2766 8.54388C43.0324 5.85186 41.521 3.77762 41.4511 3.68239L40.8044 2.8L40.1583 3.68278C40.1048 3.75577 39.0118 5.25941 37.9966 7.37824C37.0229 6.43995 36.3314 5.87448 36.2954 5.84505L35.4299 5.14079L35.0259 6.26658C34.9853 6.37981 34.6091 7.44404 34.2323 9.01463C33.8554 7.44404 33.4793 6.37993 33.4387 6.26658L33.0347 5.14079L32.1692 5.84505C32.133 5.87448 31.4417 6.43982 30.468 7.37812C29.4526 5.25915 28.3598 3.75577 28.3063 3.68265L27.6598 2.8L27.0131 3.68213C26.9431 3.77749 25.4318 5.85186 24.1875 8.54375C21.7189 7.42091 19.3963 6.96687 19.2892 6.9463L18.2984 6.75623L18.3053 7.90901C18.3059 8.0045 18.3237 9.96244 18.7482 12.3309C17.4763 12.3414 16.6312 12.4254 16.5869 12.4299L15.5301 12.538L15.8589 13.6959C15.9245 13.9266 17.2632 18.5603 19.909 21.9689H17.6331L29.4637 50.9711L26.7373 68.6H41.7269L39.0005 50.9714L50.8311 21.9691H48.5553C51.2011 18.5604 52.5397 13.9269 52.6053 13.6962L52.934 12.5381ZM43.0153 11.3575C43.1271 11.2861 43.2419 11.2155 43.3594 11.1456C43.3869 11.1291 43.4154 11.113 43.4433 11.0967C43.538 11.0413 43.6345 10.9863 43.7328 10.9318C43.7671 10.9128 43.801 10.8939 43.8358 10.8752C43.9613 10.8069 44.0888 10.7391 44.22 10.6724L44.2243 10.6702C45.7796 9.88057 47.3958 9.37782 48.4121 9.10716C48.3523 9.93583 48.2301 11.1089 47.9813 12.3652C47.9038 12.3689 47.8273 12.3736 47.7504 12.378C47.7027 12.3807 47.6544 12.383 47.607 12.386C47.4562 12.3952 47.3063 12.4055 47.1576 12.4171C47.1427 12.4182 47.1282 12.4197 47.1133 12.4208C46.9794 12.4315 46.8466 12.443 46.7146 12.4558C46.668 12.4601 46.622 12.465 46.5756 12.4698C46.4755 12.4798 46.3758 12.4902 46.277 12.5014C46.2248 12.5072 46.173 12.5135 46.1212 12.5196C46.0278 12.5307 45.935 12.5424 45.8427 12.5546C45.7912 12.5613 45.7398 12.5681 45.6885 12.5752C45.592 12.5885 45.4962 12.6025 45.401 12.6169C45.3574 12.6235 45.3132 12.6299 45.2697 12.6367C45.1324 12.6583 44.9962 12.6808 44.8618 12.7046C44.6982 12.7335 44.5373 12.765 44.3779 12.7974C44.3378 12.8055 44.2979 12.8137 44.2581 12.822C44.1004 12.8551 43.944 12.8894 43.7907 12.9257C43.785 12.927 43.7795 12.9286 43.7738 12.9299C43.6255 12.9653 43.4799 13.0026 43.3358 13.0412C43.2976 13.0513 43.2595 13.0616 43.2216 13.072C43.0753 13.1122 42.9304 13.1536 42.789 13.1968C42.7869 13.1974 42.7849 13.1979 42.7829 13.1986C42.7811 13.1956 42.7792 13.1925 42.7774 13.1896C42.7758 13.187 42.7743 13.1845 42.7727 13.1819C42.7148 13.086 42.6557 12.9896 42.5952 12.893C42.5728 12.857 42.5495 12.8211 42.5267 12.7852C42.4859 12.7209 42.4451 12.6566 42.4032 12.5923C42.3761 12.5505 42.3481 12.5085 42.3204 12.4664C42.2811 12.4069 42.2418 12.3474 42.2016 12.2878C42.1725 12.2445 42.1428 12.2012 42.1131 12.1577C42.09 12.1239 42.0675 12.09 42.0439 12.0561C42.1227 11.9921 42.2018 11.9282 42.2847 11.8652C42.2959 11.8568 42.3078 11.8484 42.3191 11.8399C42.4077 11.7732 42.499 11.707 42.5924 11.6415C42.6224 11.6204 42.6528 11.5993 42.6834 11.5784C42.7701 11.5186 42.8589 11.4594 42.9496 11.4005C42.9716 11.3861 42.993 11.3717 43.0153 11.3575ZM40.8109 5.89492C41.328 6.6966 42.0707 7.93073 42.7305 9.33669C42.6928 9.35854 42.656 9.3809 42.6187 9.40288C42.5982 9.41509 42.5776 9.42717 42.5572 9.43938C42.4252 9.51816 42.2962 9.59822 42.1703 9.67906C42.1503 9.69191 42.1305 9.70476 42.1107 9.71761C41.9845 9.79961 41.8607 9.8825 41.7405 9.96655C41.7249 9.97734 41.7097 9.9884 41.6944 9.99919C41.5708 10.0865 41.4498 10.1746 41.3326 10.2639C41.3264 10.2687 41.3203 10.2736 41.314 10.2785C41.1953 10.3693 41.08 10.4613 40.9682 10.5544C40.9624 10.5593 40.9563 10.564 40.9504 10.5689C40.9466 10.5721 40.9425 10.5753 40.9386 10.5785C40.9301 10.5679 40.9209 10.5571 40.9123 10.5464C40.7969 10.4034 40.6797 10.2602 40.5596 10.1167C40.5408 10.0942 40.5211 10.0715 40.5022 10.0491C40.3996 9.92722 40.2957 9.80526 40.1897 9.68343C40.146 9.63292 40.1012 9.58254 40.0566 9.53178C39.9727 9.43642 39.8882 9.34106 39.8023 9.24545C39.7531 9.19083 39.7035 9.13608 39.6537 9.08133C39.5675 8.98662 39.48 8.89203 39.3919 8.79744C39.36 8.76326 39.3294 8.72907 39.2973 8.69501C39.817 7.55662 40.3877 6.57168 40.8109 5.89492ZM36.2125 8.20897C36.6179 8.57832 37.1319 9.0654 37.6933 9.64089C37.8116 9.76208 37.9283 9.8834 38.0433 10.0047C38.2688 10.2427 38.488 10.481 38.7006 10.7189C38.8133 10.845 38.924 10.9708 39.0329 11.0967C39.3417 11.454 39.6348 11.81 39.9115 12.1638C39.9163 12.1699 39.9214 12.1762 39.9263 12.1824C40.0199 12.3023 40.1116 12.422 40.2014 12.5415C40.7936 13.329 41.2998 14.1039 41.7063 14.8445C42.14 15.634 42.4658 16.3949 42.6751 17.1056C42.9387 18.0013 43.1192 18.8451 43.2117 19.6132C43.2457 19.8963 43.2681 20.1808 43.278 20.4582C43.2825 20.583 43.2832 20.7045 43.2822 20.8243C43.2819 20.8588 43.281 20.8923 43.2803 20.9262C43.2784 21.0162 43.275 21.1045 43.2698 21.1914C43.268 21.2226 43.2666 21.2542 43.2643 21.285C43.2562 21.3976 43.2459 21.5083 43.2325 21.6153C43.2311 21.627 43.2289 21.6382 43.2274 21.65C43.2147 21.7451 43.1998 21.8378 43.183 21.9284C43.1804 21.9423 43.1775 21.9555 43.175 21.9693H36.9625C36.4133 21.0706 35.9405 19.9534 35.5542 18.6414C34.5107 15.0969 35.5901 10.3904 36.2125 8.20897ZM34.232 20.1297C34.4581 20.79 34.7076 21.4042 34.9792 21.9689H33.4845C33.7565 21.4042 34.0059 20.7901 34.232 20.1297ZM30.7709 9.64102L30.777 9.63472C31.3363 9.06154 31.8485 8.5764 32.2523 8.20833C32.8757 10.3872 33.9557 15.0885 32.9102 18.6412C32.524 19.9531 32.0511 21.0703 31.5018 21.9691H25.2894C25.2868 21.9555 25.2839 21.9423 25.2813 21.9285C25.2645 21.8383 25.2496 21.7462 25.2372 21.6516C25.2355 21.6391 25.2334 21.6273 25.2318 21.6147C25.2184 21.5079 25.2083 21.398 25.2001 21.2859C25.1979 21.2542 25.1963 21.2214 25.1945 21.1893C25.1896 21.1036 25.1861 21.0163 25.1841 20.9278C25.1833 20.8932 25.1824 20.8586 25.1821 20.8234C25.1811 20.7039 25.182 20.5826 25.1863 20.458C25.1936 20.2547 25.2097 20.0474 25.2301 19.8395C25.2375 19.7641 25.2436 19.6885 25.2526 19.6131C25.345 18.8448 25.5255 18.0011 25.7893 17.1053C25.9984 16.3944 26.3244 15.6337 26.7579 14.8442C26.8087 14.7517 26.8611 14.6585 26.9151 14.565C27.2122 14.0492 27.5567 13.5185 27.9421 12.9801C28.0464 12.8344 28.1527 12.6881 28.263 12.5415C28.5322 12.1834 28.8191 11.8226 29.1225 11.46C29.628 10.8557 30.1794 10.2471 30.7709 9.64102ZM27.653 5.89492C28.0764 6.57168 28.647 7.55649 29.1665 8.69501C29.1354 8.72804 29.1058 8.7612 29.0749 8.79436C28.9848 8.891 28.8955 8.98765 28.8074 9.08455C28.7592 9.13737 28.7113 9.19031 28.6637 9.24313C28.5758 9.34081 28.489 9.43873 28.4032 9.53641C28.3606 9.58486 28.3176 9.63344 28.2755 9.68189C28.1689 9.80475 28.0639 9.92761 27.9606 10.0503C27.9419 10.0724 27.9226 10.0947 27.904 10.1168C27.7844 10.2597 27.6675 10.4025 27.5526 10.5451C27.5437 10.5562 27.5341 10.5675 27.5252 10.5785C27.5217 10.5757 27.5181 10.5729 27.5147 10.5699C27.5074 10.5639 27.4997 10.5578 27.4924 10.5517C27.382 10.4599 27.2683 10.3692 27.1512 10.2795C27.1443 10.2742 27.1376 10.2689 27.1308 10.2635C27.0139 10.1744 26.8931 10.0865 26.7697 9.99945C26.7541 9.98852 26.7387 9.97747 26.7232 9.96655C26.6029 9.8825 26.4794 9.79974 26.3531 9.71774C26.3334 9.70489 26.3137 9.69217 26.2937 9.67932C26.1676 9.59822 26.0384 9.51829 25.9065 9.43951C25.8861 9.4273 25.8656 9.41522 25.8451 9.40314C25.8078 9.38103 25.7711 9.3588 25.7333 9.33682C26.3933 7.93073 27.1361 6.6966 27.653 5.89492ZM24.244 10.6721C24.3753 10.7388 24.5027 10.8067 24.6283 10.8749C24.6627 10.8937 24.6964 10.9124 24.7305 10.9312C24.8299 10.9862 24.9274 11.0418 25.0233 11.0979C25.0498 11.1136 25.077 11.1288 25.1034 11.1445C25.2217 11.2149 25.3374 11.286 25.4499 11.358C25.4706 11.3712 25.4904 11.3845 25.5108 11.3978C25.6038 11.4581 25.6946 11.5188 25.7835 11.5799C25.8122 11.5997 25.8409 11.6195 25.8691 11.6394C25.9656 11.7072 26.06 11.7755 26.1514 11.8444C26.16 11.8508 26.1691 11.8574 26.1776 11.8638C26.261 11.9272 26.3406 11.9914 26.4198 12.0557C26.3947 12.0919 26.3708 12.1279 26.3459 12.1642C26.3188 12.2039 26.2915 12.2436 26.2648 12.2833C26.2217 12.3473 26.1795 12.4112 26.1375 12.4748C26.1127 12.5126 26.0875 12.5502 26.0629 12.588C26.0175 12.6579 25.9731 12.7277 25.9289 12.7974C25.9094 12.8281 25.8894 12.8592 25.8701 12.8898C25.8105 12.9849 25.7523 13.0796 25.6953 13.174C25.6923 13.1792 25.689 13.1842 25.686 13.1895C25.6843 13.1923 25.6825 13.1951 25.6809 13.1979C25.6787 13.1973 25.6764 13.1967 25.6742 13.196C25.533 13.1527 25.3885 13.1115 25.2423 13.0714C25.2044 13.0609 25.1662 13.0505 25.1279 13.0404C24.9839 13.0018 24.8383 12.9646 24.69 12.9291C24.6843 12.9278 24.6788 12.9263 24.6731 12.925C24.5198 12.8885 24.3635 12.8544 24.2059 12.8213C24.1661 12.8129 24.1261 12.8047 24.086 12.7965C23.9266 12.7641 23.7657 12.7327 23.6021 12.7037C23.4678 12.6799 23.3316 12.6574 23.1944 12.6358C23.151 12.629 23.1067 12.6226 23.0628 12.616C22.9675 12.6016 22.8719 12.5876 22.7754 12.5743C22.7243 12.5673 22.6729 12.5605 22.6215 12.5537C22.529 12.5415 22.4362 12.5299 22.3426 12.5187C22.2909 12.5126 22.2393 12.5064 22.1874 12.5006C22.088 12.4896 21.9879 12.479 21.8875 12.4689C21.8417 12.4643 21.796 12.4595 21.7499 12.455C21.6165 12.4423 21.4823 12.4306 21.3469 12.4199C21.3335 12.4189 21.3204 12.4176 21.3069 12.4166C21.158 12.4049 21.0078 12.3947 20.8565 12.3853C20.8099 12.3825 20.7627 12.3802 20.716 12.3776C20.6384 12.3733 20.5611 12.3685 20.4829 12.3647C20.235 11.111 20.1126 9.93635 20.0524 9.10614C21.068 9.37653 22.6836 9.87916 24.244 10.6721ZM17.8598 14.291C18.3771 14.2707 19.0437 14.2587 19.7962 14.2786C21.0642 14.3126 22.2578 14.4272 23.3442 14.6198C23.4627 14.6408 23.5797 14.6629 23.6958 14.6858C23.7345 14.6934 23.7725 14.7017 23.811 14.7095C23.8878 14.7252 23.9644 14.7409 24.0399 14.7575C24.0844 14.7671 24.1282 14.7775 24.1725 14.7874C24.2409 14.803 24.3092 14.8185 24.3766 14.8348C24.422 14.8458 24.4667 14.8571 24.5118 14.8683C24.5772 14.8846 24.6424 14.9012 24.7068 14.9183C24.7272 14.9237 24.7474 14.9293 24.7676 14.9347C24.754 14.965 24.742 14.9952 24.7286 15.0256C24.694 15.1041 24.6603 15.1825 24.6276 15.2605C24.6076 15.308 24.5882 15.3556 24.5691 15.403C24.538 15.48 24.508 15.5567 24.4787 15.6332C24.4614 15.6787 24.4438 15.7243 24.4271 15.7695C24.3968 15.8521 24.3681 15.9339 24.34 16.0158C24.3269 16.0538 24.3132 16.092 24.3006 16.13C24.261 16.249 24.2234 16.3674 24.1888 16.485C24.1516 16.6114 24.1158 16.737 24.0816 16.8618C23.8416 17.7356 23.6728 18.5704 23.5793 19.3482V19.3483C23.5379 19.693 23.5108 20.0396 23.4986 20.3785V20.3788C23.4936 20.5174 23.4915 20.6543 23.4918 20.7894C23.4919 20.8377 23.4942 20.8846 23.4951 20.9324C23.4965 21.0181 23.4975 21.1044 23.5011 21.1883C23.5036 21.2441 23.5083 21.2984 23.5118 21.3534C23.5164 21.4278 23.5202 21.5029 23.5267 21.576C23.5316 21.6324 23.5388 21.6873 23.5448 21.7429C23.5523 21.8129 23.559 21.8833 23.5682 21.9519C23.569 21.9576 23.5693 21.9635 23.5701 21.9691H22.3292C20.0478 19.8192 18.5313 16.1696 17.8598 14.291ZM39.7115 66.6613H28.7525L31.0479 51.82H33.3873V58.5334H35.0766V51.82H37.416L39.7115 66.6613ZM37.5798 49.8813H35.9267L38.3985 38.5282L36.7596 38.0581L34.2319 49.668L31.7041 38.0581L30.0653 38.5282L32.537 49.8813H30.884L20.2887 23.9075H21.7477H24.095H25.9152H32.3378H36.1259H42.5486H44.3688H46.716H48.175L37.5798 49.8813ZM46.1351 21.969H44.8941C44.8949 21.9634 44.8953 21.9572 44.896 21.9515C44.9052 21.8821 44.9121 21.8109 44.9196 21.7403C44.9254 21.6856 44.9326 21.6319 44.9374 21.5765C44.9441 21.4992 44.9484 21.4199 44.9531 21.3411C44.9561 21.2902 44.9606 21.2405 44.9628 21.1889C44.9669 21.0957 44.9682 21.0005 44.9696 20.9054C44.9701 20.8666 44.972 20.8289 44.9721 20.7899C44.9726 20.6546 44.9705 20.5176 44.9655 20.3785L44.9654 20.3781C44.9532 20.039 44.926 19.6924 44.8847 19.3479C44.7779 18.4591 44.5726 17.4958 44.2751 16.4849C44.2405 16.3674 44.2028 16.2489 44.1633 16.1298C44.1509 16.0924 44.1374 16.0548 44.1244 16.0173C44.0961 15.9347 44.0671 15.8519 44.0364 15.7686C44.0201 15.7244 44.0031 15.68 43.986 15.6356C43.9562 15.5576 43.9257 15.4792 43.8938 15.4007C43.8752 15.3548 43.8564 15.3089 43.8372 15.2629C43.804 15.1833 43.7695 15.1034 43.7342 15.0233C43.7212 14.9937 43.7096 14.9644 43.6962 14.9348C43.7166 14.9294 43.7368 14.9238 43.7573 14.9184C43.8214 14.9014 43.8864 14.885 43.9517 14.8685C43.9968 14.8573 44.0418 14.8459 44.0874 14.835C44.1546 14.8188 44.2228 14.8032 44.291 14.7877C44.3352 14.7777 44.3792 14.7674 44.424 14.7576C44.4997 14.741 44.5764 14.7254 44.6532 14.7097C44.6916 14.7018 44.7295 14.6936 44.7681 14.686C44.8841 14.6632 45.0011 14.641 45.1197 14.6201C46.2061 14.4277 47.3996 14.3129 48.6676 14.2789C49.4202 14.2587 50.0867 14.2708 50.6039 14.2912C49.9327 16.1699 48.4163 19.8192 46.1351 21.969Z" fill="white"/>
<path d="M57.1388 16.6686L56.3003 17.631L55.4532 16.6585L54.2586 18.0294L56.3003 20.3726L58.3333 18.0393L57.1388 16.6686Z" fill="white"/>
<path d="M13.6137 34.0722L12.775 35.0345L11.9277 34.0622L10.7333 35.4331L12.775 37.7762L14.808 35.4431L13.6137 34.0722Z" fill="white"/>
<path d="M47.5566 54.0167L46.7179 54.979L45.8708 54.0065L44.6763 55.3774L46.7179 57.7206L48.751 55.3874L47.5566 54.0167Z" fill="white"/>
</svg>
