<svg width="70" height="70" viewBox="0 0 70 70" fill="none" xmlns="http://www.w3.org/2000/svg">
<circle cx="35" cy="35" r="35" fill="#FFA5C0"/>
<g clip-path="url(#clip0)">
<path d="M54.6967 20.1804H48.2577L51.9239 17.1584C52.0986 17.0256 52.2504 16.8598 52.3698 16.6653C52.6615 16.1903 52.721 15.6161 52.5329 15.0901L50.0513 8.14953C49.7184 7.21852 48.7325 6.73526 47.8063 7.04925L46.3476 7.54375C45.9693 7.67205 45.7652 8.08695 45.8917 8.47056C46.0182 8.85427 46.427 9.06138 46.8056 8.93309L48.2642 8.43849C48.441 8.37874 48.6299 8.47095 48.6935 8.64892L51.1751 15.5895C51.2443 15.8501 51.1115 16.0084 50.8911 16.0519L46.8293 16.5012C45.4547 16.6533 44.1233 17.1495 42.979 17.9363L40.2852 19.7884C40.2637 19.7844 39.8252 19.7008 39.8252 19.7008V17.6022C39.8252 16.8202 39.6509 16.079 39.3404 15.4154L40.6193 13.046C41.3444 11.7027 42.4502 10.6493 43.8171 9.99973C44.1783 9.82812 44.3339 9.39209 44.1647 9.02579C43.9955 8.65948 43.5656 8.50176 43.2045 8.67327C41.5578 9.45575 40.2259 10.7245 39.3524 12.3425L38.4222 14.0658C37.5026 13.0912 36.2091 12.4824 34.7773 12.4824C33.346 12.4824 32.053 13.0907 31.1335 14.0646L30.2022 12.3393C29.1695 10.426 27.4775 8.99156 25.4378 8.30002L21.7481 7.04925C20.8223 6.73545 19.836 7.21852 19.503 8.14953L17.0214 15.0901C16.8333 15.6161 16.8928 16.1903 17.1845 16.6653C17.2865 16.8313 17.4121 16.9763 17.5554 17.098C17.5557 17.0983 21.2947 20.1804 21.2947 20.1804H14.8577C13.8224 20.1804 12.9801 21.0346 12.9801 22.0847V29.9634C12.9801 31.0135 13.8224 31.8677 14.8577 31.8677H16.3732V54.8226C16.3732 56.0342 17.3451 57.0198 18.5397 57.0198H51.0147C52.2093 57.0198 53.1812 56.0342 53.1812 54.8226V46.3343C53.4441 46.342 53.6803 46.3452 53.8938 46.3452C53.9414 46.3452 53.9877 46.3451 54.0325 46.3448C54.7058 46.3408 55.2827 45.8504 55.4047 45.1786C55.7774 43.1208 56.4197 38.0238 54.3371 35.1452C54.0227 34.7107 53.6276 34.3494 53.1812 34.076V31.8677H54.6967C55.732 31.8677 56.5743 31.0135 56.5743 29.9634V22.0847C56.5744 21.0346 55.732 20.1804 54.6967 20.1804V20.1804ZM43.7893 19.1488C44.7394 18.4956 45.8448 18.0837 46.986 17.9573L48.9247 17.7429L45.9676 20.1804H42.2889L43.7893 19.1488ZM43.0303 25.2071C42.8599 27.2947 43.9326 29.2707 45.7629 30.2412L46.068 30.4029H40.7096V25.1691C40.7096 24.7646 40.3863 24.4367 39.9874 24.4367C39.5886 24.4367 39.2653 24.7646 39.2653 25.1691V30.4029H30.289V21.6452H41.1723C42.3974 22.3391 43.153 23.7035 43.0303 25.2071ZM34.7772 13.9473C36.7642 13.9473 38.3808 15.5869 38.3808 17.6022V19.4938C38.1101 19.5615 37.8909 19.7858 37.8412 20.0825C37.8358 20.1154 37.8332 20.148 37.8322 20.1804H31.1736V17.6023C31.1736 15.5869 32.7902 13.9473 34.7772 13.9473V13.9473ZM18.3792 15.5895L20.8609 8.64892C20.9245 8.47095 21.1133 8.37845 21.2901 8.43849L24.9797 9.68936C26.6731 10.2635 28.0778 11.4543 28.9351 13.0427L30.2148 15.4136C29.9038 16.0777 29.7292 16.8195 29.7292 17.6022V20.1046L26.5753 17.9363C25.431 17.1495 24.0995 16.6532 22.725 16.5012L18.6632 16.0519C18.4389 16.007 18.3116 15.8501 18.3792 15.5895ZM20.6274 17.7427L22.5684 17.9574C23.7096 18.0837 24.815 18.4956 25.7651 19.1489L27.2655 20.1805H23.5847L20.6274 17.7427ZM14.4243 29.9634V22.0847C14.4243 21.8424 14.6187 21.6452 14.8576 21.6452H28.8447V30.4029H14.8577C14.6187 30.4029 14.4243 30.2058 14.4243 29.9634V29.9634ZM17.8175 54.8226V31.8677H28.8447V32.96C28.8447 33.3645 29.168 33.6924 29.5669 33.6924C29.9657 33.6924 30.289 33.3645 30.289 32.96V31.8677H39.2653V55.5549H30.289V36.5855C30.289 36.1809 29.9657 35.8531 29.5669 35.8531C29.168 35.8531 28.8447 36.1809 28.8447 36.5855V55.555H18.5397C18.1415 55.555 17.8175 55.2265 17.8175 54.8226ZM51.7369 54.8226C51.7369 55.2265 51.4129 55.555 51.0147 55.555H40.7097V31.8677H47.5701C47.9414 32.5293 48.1123 33.3048 48.0295 34.1034L47.9038 35.3185C47.6175 35.7826 47.4299 36.3033 47.356 36.851C46.4198 36.8132 45.5049 37.1209 44.7671 37.7343C43.9405 38.4214 43.4492 39.4012 43.3832 40.4934C43.316 41.6075 43.7155 42.712 44.4791 43.5238C46.2387 45.3942 49.3558 46.038 51.737 46.2481V54.8226H51.7369ZM53.9902 44.8803C52.4892 44.8853 47.6073 44.7272 45.524 42.5128C45.0368 41.9949 44.7819 41.2915 44.8247 40.583C44.8658 39.9024 45.1705 39.293 45.6825 38.8673C46.1186 38.5048 46.6545 38.3133 47.2057 38.3133C47.3772 38.3133 47.5502 38.3318 47.7222 38.3695C47.9841 38.4269 48.2527 38.3599 48.4581 38.1854C48.6636 38.0108 48.7757 37.7546 48.7659 37.4823C48.7383 36.731 49.0445 36.0205 49.6058 35.5327C50.1087 35.0957 50.7539 34.8979 51.4213 34.9761C52.1166 35.0573 52.7549 35.4349 53.1724 36.0119C54.9581 38.4798 54.2593 43.3799 53.9902 44.8803V44.8803ZM51.7369 33.5426C51.6869 33.5348 51.637 33.5269 51.5867 33.521C50.8517 33.435 50.1328 33.5584 49.4918 33.872C49.5138 33.1747 49.3986 32.496 49.1645 31.8678H51.7369V33.5426ZM55.1301 29.9634C55.1301 30.2058 54.9357 30.4029 54.6968 30.4029H48.3245C47.8977 29.8808 47.3654 29.4379 46.7439 29.1082L46.4322 28.943C45.1176 28.246 44.3473 26.827 44.4697 25.3278C44.5758 24.0274 44.1998 22.7436 43.411 21.7128C43.3934 21.6897 43.3747 21.6678 43.3567 21.6451H54.6968C54.9357 21.6451 55.1301 21.8423 55.1301 22.0846V29.9634Z" fill="white"/>
</g>
<defs>
<clipPath id="clip0">
<rect width="47.2848" height="50.0662" fill="white" transform="translate(11.1258 6.95364)"/>
</clipPath>
</defs>
</svg>
